<svg xmlns="http://www.w3.org/2000/svg" viewBox="0 0 443 120" width="443" height="120" role="img" aria-label="AWSIO"><defs><linearGradient id="igsteel" gradientUnits="userSpaceOnUse" x1="6" y1="6" x2="90" y2="90"><stop offset="0" stop-color="#334155"/><stop offset="0.5" stop-color="#0e7490"/><stop offset="1" stop-color="#0891b2"/></linearGradient><linearGradient id="tgsteel" x1="0" y1="0" x2="1" y2="0"><stop offset="0" stop-color="#334155"/><stop offset="0.5" stop-color="#0e7490"/><stop offset="1" stop-color="#0891b2"/></linearGradient></defs><g transform="translate(12,12)"><path d="M48.00,4.00 L9.89,26.00 L9.89,70.00 L48.00,92.00 L86.11,70.00 L86.11,26.00 Z" fill="url(#igsteel)"/><path d="M48.00,13.00 L17.69,30.50 L17.69,65.50 L48.00,83.00 L78.31,65.50 L78.31,30.50 Z" fill="none" stroke="#fff" stroke-opacity=".30" stroke-width="1.3"/><g fill="#fff" fill-opacity=".94"><rect x="32" y="35" width="34" height="7" rx="3.5"/><rect x="32" y="46" width="22" height="7" rx="3.5"/><rect x="32" y="57" width="30" height="7" rx="3.5"/></g></g><path d="M151.19,61.17L139.53,61.17L137.69,66.44L130.19,66.44L140.90,37.52L149.79,37.52L160.50,66.44L153.01,66.44L151.19,61.17ZM141.39,55.80L149.31,55.80L145.36,44.30L141.39,55.80ZM160.09,37.52L167.24,37.52L172.23,58.53L177.19,37.52L184.37,37.52L189.33,58.53L194.33,37.52L201.42,37.52L194.60,66.44L186.00,66.44L180.75,44.46L175.57,66.44L166.97,66.44L160.09,37.52ZM226.42,38.43L226.42,44.55Q224.04,43.49 221.77,42.95Q219.51,42.40 217.49,42.40Q214.82,42.40 213.54,43.14Q212.26,43.87 212.26,45.42Q212.26,46.59 213.12,47.24Q213.99,47.88 216.25,48.35L219.43,48.99Q224.25,49.96 226.28,51.93Q228.32,53.91 228.32,57.55Q228.32,62.33 225.48,64.66Q222.64,67.00 216.81,67.00Q214.07,67.00 211.30,66.47Q208.53,65.95 205.76,64.92L205.76,58.63Q208.53,60.10 211.11,60.85Q213.69,61.60 216.10,61.60Q218.54,61.60 219.84,60.78Q221.13,59.97 221.13,58.45Q221.13,57.10 220.25,56.37Q219.37,55.63 216.74,55.05L213.85,54.41Q209.51,53.48 207.50,51.45Q205.50,49.41 205.50,45.97Q205.50,41.65 208.29,39.32Q211.08,37.00 216.31,37.00Q218.70,37.00 221.21,37.36Q223.73,37.72 226.42,38.43ZM234.87,37.52L242.32,37.52L242.32,66.44L234.87,66.44L234.87,37.52ZM262.83,42.40Q259.42,42.40 257.54,44.92Q255.66,47.44 255.66,52.01Q255.66,56.56 257.54,59.08Q259.42,61.60 262.83,61.60Q266.26,61.60 268.13,59.08Q270.01,56.56 270.01,52.01Q270.01,47.44 268.13,44.92Q266.26,42.40 262.83,42.40ZM262.83,37.00Q269.80,37.00 273.75,40.99Q277.70,44.98 277.70,52.01Q277.70,59.02 273.75,63.01Q269.80,67.00 262.83,67.00Q255.88,67.00 251.92,63.01Q247.96,59.02 247.96,52.01Q247.96,44.98 251.92,40.99Q255.88,37.00 262.83,37.00Z" fill="url(#tgsteel)"/><path d="M130.47,76.15L132.40,76.15L133.38,79.74L134.35,76.15L136.29,76.15L136.29,84.34L134.90,84.34L134.90,77.78L134.03,81.36L132.74,81.36L131.87,77.78L131.87,84.34L130.47,84.34L130.47,76.15ZM146.91,77.63L146.15,80.98L147.68,80.98L146.91,77.63ZM145.92,76.15L147.90,76.15L150.12,84.34L148.50,84.34L147.99,82.32L145.82,82.32L145.33,84.34L143.71,84.34L145.92,76.15ZM157.71,76.15L159.46,76.15L161.74,82.10L161.74,76.15L163.16,76.15L163.16,84.34L161.44,84.34L159.14,78.39L159.14,84.34L157.71,84.34L157.71,76.15ZM173.97,77.63L173.21,80.98L174.74,80.98L173.97,77.63ZM172.99,76.15L174.97,76.15L177.18,84.34L175.56,84.34L175.05,82.32L172.89,82.32L172.39,84.34L170.77,84.34L172.99,76.15ZM188.91,82.86L188.91,81.30L187.80,81.30L187.80,79.93L190.32,79.93L190.32,83.69Q189.86,84.09 189.29,84.29Q188.73,84.50 188.09,84.50Q186.50,84.50 185.63,83.39Q184.77,82.29 184.77,80.25Q184.77,78.18 185.64,77.09Q186.52,76.00 188.17,76.00Q188.66,76.00 189.14,76.14Q189.62,76.28 190.03,76.54L190.03,78.34Q189.69,77.90 189.25,77.68Q188.81,77.45 188.28,77.45Q187.36,77.45 186.90,78.15Q186.45,78.84 186.45,80.25Q186.45,81.62 186.89,82.33Q187.33,83.04 188.17,83.04Q188.42,83.04 188.61,83.00Q188.79,82.95 188.91,82.86ZM203.68,84.34L198.58,84.34L198.58,76.15L203.68,76.15L203.68,77.57L200.20,77.57L200.20,79.34L203.35,79.34L203.35,80.77L200.20,80.77L200.20,82.91L203.68,82.91L203.68,84.34ZM213.56,77.61L213.56,82.88L213.99,82.88Q214.95,82.88 215.36,82.28Q215.76,81.68 215.76,80.24Q215.76,78.80 215.36,78.21Q214.95,77.61 213.99,77.61L213.56,77.61ZM211.94,76.15L213.67,76.15Q215.68,76.15 216.56,77.11Q217.45,78.06 217.45,80.24Q217.45,82.41 216.56,83.38Q215.68,84.34 213.67,84.34L211.94,84.34L211.94,76.15ZM240.50,80.62L240.50,83.04L241.57,83.04Q242.35,83.04 242.66,82.78Q242.97,82.52 242.97,81.87Q242.97,81.20 242.64,80.91Q242.32,80.62 241.57,80.62L240.50,80.62ZM240.50,77.43L240.50,79.33L241.57,79.33Q242.19,79.33 242.45,79.11Q242.71,78.89 242.71,78.39Q242.71,77.88 242.44,77.65Q242.18,77.43 241.57,77.43L240.50,77.43ZM238.93,76.14L241.57,76.14Q242.94,76.14 243.63,76.66Q244.32,77.17 244.32,78.21Q244.32,79.00 243.91,79.44Q243.50,79.88 242.72,79.96Q243.66,80.05 244.13,80.59Q244.61,81.13 244.61,82.09Q244.61,83.28 243.89,83.81Q243.18,84.34 241.57,84.34L238.93,84.34L238.93,76.14ZM255.16,77.63L254.40,80.98L255.93,80.98L255.16,77.63ZM254.17,76.15L256.15,76.15L258.36,84.34L256.74,84.34L256.24,82.32L254.07,82.32L253.58,84.34L251.96,84.34L254.17,76.15ZM271.24,84.10Q270.86,84.30 270.43,84.40Q270.01,84.50 269.55,84.50Q267.89,84.50 267.02,83.41Q266.14,82.32 266.14,80.25Q266.14,78.18 267.02,77.09Q267.89,76.00 269.55,76.00Q270.01,76.00 270.44,76.10Q270.87,76.20 271.24,76.40L271.24,78.19Q270.82,77.81 270.43,77.63Q270.04,77.45 269.62,77.45Q268.73,77.45 268.28,78.16Q267.83,78.86 267.83,80.25Q267.83,81.63 268.28,82.34Q268.73,83.04 269.62,83.04Q270.04,83.04 270.43,82.87Q270.82,82.69 271.24,82.31L271.24,84.10ZM279.48,76.15L281.10,76.15L281.10,79.39L283.64,76.15L285.47,76.15L282.88,79.37L285.56,84.34L283.76,84.34L281.82,80.65L281.10,81.56L281.10,84.34L279.48,84.34L279.48,76.15ZM292.95,81.32L292.95,76.15L294.57,76.15L294.57,81.72Q294.57,82.34 294.88,82.69Q295.20,83.03 295.75,83.03Q296.31,83.03 296.62,82.69Q296.93,82.34 296.93,81.72L296.93,76.15L298.55,76.15L298.55,81.32Q298.55,82.98 297.89,83.74Q297.22,84.50 295.75,84.50Q294.29,84.50 293.62,83.74Q292.95,82.98 292.95,81.32ZM308.41,77.51L308.41,79.91L309.07,79.91Q309.87,79.91 310.19,79.64Q310.51,79.37 310.51,78.71Q310.51,78.05 310.19,77.78Q309.87,77.51 309.07,77.51L308.41,77.51ZM306.79,76.15L309.01,76.15Q310.71,76.15 311.45,76.75Q312.19,77.36 312.19,78.71Q312.19,80.07 311.45,80.67Q310.71,81.27 309.01,81.27L308.41,81.27L308.41,84.34L306.79,84.34L306.79,76.15ZM335.76,80.75Q334.54,80.28 334.10,79.77Q333.67,79.25 333.67,78.39Q333.67,77.27 334.38,76.64Q335.10,76.00 336.34,76.00Q336.91,76.00 337.47,76.13Q338.04,76.26 338.59,76.51L338.59,78.09Q338.07,77.72 337.53,77.53Q337.00,77.34 336.47,77.34Q335.88,77.34 335.57,77.57Q335.26,77.81 335.26,78.25Q335.26,78.59 335.48,78.81Q335.71,79.03 336.44,79.30L337.13,79.57Q338.12,79.93 338.59,80.53Q339.05,81.13 339.05,82.03Q339.05,83.28 338.32,83.89Q337.59,84.50 336.11,84.50Q335.50,84.50 334.89,84.35Q334.28,84.21 333.70,83.92L333.70,82.25Q334.35,82.71 334.96,82.94Q335.56,83.16 336.16,83.16Q336.75,83.16 337.08,82.89Q337.41,82.62 337.41,82.13Q337.41,81.76 337.19,81.49Q336.97,81.21 336.56,81.05L335.76,80.75ZM352.52,84.34L347.42,84.34L347.42,76.15L352.52,76.15L352.52,77.57L349.04,77.57L349.04,79.34L352.19,79.34L352.19,80.77L349.04,80.77L349.04,82.91L352.52,82.91L352.52,84.34ZM364.45,80.47Q364.69,80.52 364.87,80.70Q365.05,80.88 365.31,81.39L366.79,84.34L365.01,84.34L364.03,82.27Q363.98,82.18 363.91,82.03Q363.48,81.10 362.89,81.10L362.37,81.10L362.37,84.34L360.76,84.34L360.76,76.15L363.09,76.15Q364.67,76.15 365.36,76.71Q366.05,77.27 366.05,78.53Q366.05,79.37 365.64,79.88Q365.23,80.37 364.45,80.47ZM362.37,77.51L362.37,79.74L363.14,79.74Q363.80,79.74 364.09,79.48Q364.38,79.22 364.38,78.62Q364.38,78.02 364.09,77.77Q363.81,77.51 363.14,77.51L362.37,77.51ZM376.94,82.99L378.38,76.15L380.01,76.15L378.06,84.34L375.82,84.34L373.87,76.15L375.50,76.15L376.94,82.99ZM388.03,77.57L388.03,76.15L392.91,76.15L392.91,77.57L391.28,77.57L391.28,82.91L392.91,82.91L392.91,84.34L388.03,84.34L388.03,82.91L389.66,82.91L389.66,77.57L388.03,77.57ZM406.55,84.10Q406.16,84.30 405.74,84.40Q405.32,84.50 404.85,84.50Q403.20,84.50 402.32,83.41Q401.45,82.32 401.45,80.25Q401.45,78.18 402.32,77.09Q403.20,76.00 404.85,76.00Q405.32,76.00 405.75,76.10Q406.18,76.20 406.55,76.40L406.55,78.19Q406.13,77.81 405.74,77.63Q405.35,77.45 404.93,77.45Q404.04,77.45 403.59,78.16Q403.14,78.86 403.14,80.25Q403.14,81.63 403.59,82.34Q404.04,83.04 404.93,83.04Q405.35,83.04 405.74,82.87Q406.13,82.69 406.55,82.31L406.55,84.10ZM420.17,84.34L415.07,84.34L415.07,76.15L420.17,76.15L420.17,77.57L416.69,77.57L416.69,79.34L419.84,79.34L419.84,80.77L416.69,80.77L416.69,82.91L420.17,82.91L420.17,84.34Z" fill="#64748b"/></svg>