<svg xmlns="http://www.w3.org/2000/svg" viewBox="0 0 443 120" width="443" height="120" role="img" aria-label="Gap ITK"><defs><linearGradient id="bg" gradientUnits="userSpaceOnUse" x1="0" y1="0" x2="96" y2="96"><stop offset="0" stop-color="#8b5cf6"/><stop offset="0.5" stop-color="#6366f1"/><stop offset="1" stop-color="#3b82f6"/></linearGradient></defs><g transform="translate(12,12)"><path d="M48.00,4.00 L9.89,26.00 L9.89,70.00 L48.00,92.00 L86.11,70.00 L86.11,26.00 Z" fill="url(#bg)"/><path d="M48.00,13.00 L17.69,30.50 L17.69,65.50 L48.00,83.00 L78.31,65.50 L78.31,30.50 Z" fill="none" stroke="#fff" stroke-opacity=".30" stroke-width="1.3"/><g fill="#fff" fill-opacity=".94"><rect x="32" y="35" width="34" height="7" rx="3.5"/><rect x="32" y="46" width="22" height="7" rx="3.5"/><rect x="32" y="57" width="30" height="7" rx="3.5"/></g></g><path d="M159.63,64.29Q156.84,65.64 153.84,66.32Q150.84,67.00 147.64,67.00Q140.42,67.00 136.20,62.96Q131.98,58.92 131.98,52.01Q131.98,45.02 136.27,41.01Q140.57,37.00 148.05,37.00Q150.93,37.00 153.57,37.55Q156.22,38.08 158.56,39.15L158.56,45.13Q156.15,43.76 153.75,43.09Q151.36,42.40 148.96,42.40Q144.51,42.40 142.10,44.90Q139.69,47.38 139.69,52.01Q139.69,56.60 142.01,59.10Q144.33,61.60 148.61,61.60Q149.77,61.60 150.77,61.45Q151.77,61.30 152.56,61.00L152.56,55.38L148.01,55.38L148.01,50.38L159.63,50.38L159.63,64.29ZM183.74,61.17L172.09,61.17L170.24,66.44L162.75,66.44L173.45,37.52L182.35,37.52L193.06,66.44L185.56,66.44L183.74,61.17ZM173.94,55.80L181.86,55.80L177.91,44.30L173.94,55.80ZM196.89,37.52L209.26,37.52Q214.78,37.52 217.73,39.97Q220.69,42.42 220.69,46.95Q220.69,51.51 217.73,53.96Q214.78,56.40 209.26,56.40L204.35,56.40L204.35,66.44L196.89,66.44L196.89,37.52ZM204.35,42.92L204.35,51.00L208.47,51.00Q210.64,51.00 211.82,49.95Q213.01,48.89 213.01,46.95Q213.01,45.02 211.82,43.97Q210.64,42.92 208.47,42.92L204.35,42.92ZM225.96,37.52L233.42,37.52L233.42,66.44L225.96,66.44L225.96,37.52ZM237.27,37.52L263.91,37.52L263.91,43.16L254.33,43.16L254.33,66.44L246.87,66.44L246.87,43.16L237.27,43.16L237.27,37.52ZM267.77,37.52L275.23,37.52L275.23,48.07L285.97,37.52L294.63,37.52L280.70,51.22L296.06,66.44L286.73,66.44L275.23,55.05L275.23,66.44L267.77,66.44L267.77,37.52Z" fill="#1e293b"/><path d="M130.47,76.15L132.40,76.15L133.38,79.74L134.35,76.15L136.29,76.15L136.29,84.34L134.90,84.34L134.90,77.78L134.03,81.36L132.74,81.36L131.87,77.78L131.87,84.34L130.47,84.34L130.47,76.15ZM146.91,77.63L146.15,80.98L147.68,80.98L146.91,77.63ZM145.92,76.15L147.90,76.15L150.12,84.34L148.50,84.34L147.99,82.32L145.82,82.32L145.33,84.34L143.71,84.34L145.92,76.15ZM157.71,76.15L159.46,76.15L161.74,82.10L161.74,76.15L163.16,76.15L163.16,84.34L161.44,84.34L159.14,78.39L159.14,84.34L157.71,84.34L157.71,76.15ZM173.97,77.63L173.21,80.98L174.74,80.98L173.97,77.63ZM172.99,76.15L174.97,76.15L177.18,84.34L175.56,84.34L175.05,82.32L172.89,82.32L172.39,84.34L170.77,84.34L172.99,76.15ZM188.91,82.86L188.91,81.30L187.80,81.30L187.80,79.93L190.32,79.93L190.32,83.69Q189.86,84.09 189.29,84.29Q188.73,84.50 188.09,84.50Q186.50,84.50 185.63,83.39Q184.77,82.29 184.77,80.25Q184.77,78.18 185.64,77.09Q186.52,76.00 188.17,76.00Q188.66,76.00 189.14,76.14Q189.62,76.28 190.03,76.54L190.03,78.34Q189.69,77.90 189.25,77.68Q188.81,77.45 188.28,77.45Q187.36,77.45 186.90,78.15Q186.45,78.84 186.45,80.25Q186.45,81.62 186.89,82.33Q187.33,83.04 188.17,83.04Q188.42,83.04 188.61,83.00Q188.79,82.95 188.91,82.86ZM203.68,84.34L198.58,84.34L198.58,76.15L203.68,76.15L203.68,77.57L200.20,77.57L200.20,79.34L203.35,79.34L203.35,80.77L200.20,80.77L200.20,82.91L203.68,82.91L203.68,84.34ZM213.56,77.61L213.56,82.88L213.99,82.88Q214.95,82.88 215.36,82.28Q215.76,81.68 215.76,80.24Q215.76,78.80 215.36,78.21Q214.95,77.61 213.99,77.61L213.56,77.61ZM211.94,76.15L213.67,76.15Q215.68,76.15 216.56,77.11Q217.45,78.06 217.45,80.24Q217.45,82.41 216.56,83.38Q215.68,84.34 213.67,84.34L211.94,84.34L211.94,76.15ZM240.50,80.62L240.50,83.04L241.57,83.04Q242.35,83.04 242.66,82.78Q242.97,82.52 242.97,81.87Q242.97,81.20 242.64,80.91Q242.32,80.62 241.57,80.62L240.50,80.62ZM240.50,77.43L240.50,79.33L241.57,79.33Q242.19,79.33 242.45,79.11Q242.71,78.89 242.71,78.39Q242.71,77.88 242.44,77.65Q242.18,77.43 241.57,77.43L240.50,77.43ZM238.93,76.14L241.57,76.14Q242.94,76.14 243.63,76.66Q244.32,77.17 244.32,78.21Q244.32,79.00 243.91,79.44Q243.50,79.88 242.72,79.96Q243.66,80.05 244.13,80.59Q244.61,81.13 244.61,82.09Q244.61,83.28 243.89,83.81Q243.18,84.34 241.57,84.34L238.93,84.34L238.93,76.14ZM255.16,77.63L254.40,80.98L255.93,80.98L255.16,77.63ZM254.17,76.15L256.15,76.15L258.36,84.34L256.74,84.34L256.24,82.32L254.07,82.32L253.58,84.34L251.96,84.34L254.17,76.15ZM271.24,84.10Q270.86,84.30 270.43,84.40Q270.01,84.50 269.55,84.50Q267.89,84.50 267.02,83.41Q266.14,82.32 266.14,80.25Q266.14,78.18 267.02,77.09Q267.89,76.00 269.55,76.00Q270.01,76.00 270.44,76.10Q270.87,76.20 271.24,76.40L271.24,78.19Q270.82,77.81 270.43,77.63Q270.04,77.45 269.62,77.45Q268.73,77.45 268.28,78.16Q267.83,78.86 267.83,80.25Q267.83,81.63 268.28,82.34Q268.73,83.04 269.62,83.04Q270.04,83.04 270.43,82.87Q270.82,82.69 271.24,82.31L271.24,84.10ZM279.48,76.15L281.10,76.15L281.10,79.39L283.64,76.15L285.47,76.15L282.88,79.37L285.56,84.34L283.76,84.34L281.82,80.65L281.10,81.56L281.10,84.34L279.48,84.34L279.48,76.15ZM292.95,81.32L292.95,76.15L294.57,76.15L294.57,81.72Q294.57,82.34 294.88,82.69Q295.20,83.03 295.75,83.03Q296.31,83.03 296.62,82.69Q296.93,82.34 296.93,81.72L296.93,76.15L298.55,76.15L298.55,81.32Q298.55,82.98 297.89,83.74Q297.22,84.50 295.75,84.50Q294.29,84.50 293.62,83.74Q292.95,82.98 292.95,81.32ZM308.41,77.51L308.41,79.91L309.07,79.91Q309.87,79.91 310.19,79.64Q310.51,79.37 310.51,78.71Q310.51,78.05 310.19,77.78Q309.87,77.51 309.07,77.51L308.41,77.51ZM306.79,76.15L309.01,76.15Q310.71,76.15 311.45,76.75Q312.19,77.36 312.19,78.71Q312.19,80.07 311.45,80.67Q310.71,81.27 309.01,81.27L308.41,81.27L308.41,84.34L306.79,84.34L306.79,76.15ZM335.76,80.75Q334.54,80.28 334.10,79.77Q333.67,79.25 333.67,78.39Q333.67,77.27 334.38,76.64Q335.10,76.00 336.34,76.00Q336.91,76.00 337.47,76.13Q338.04,76.26 338.59,76.51L338.59,78.09Q338.07,77.72 337.53,77.53Q337.00,77.34 336.47,77.34Q335.88,77.34 335.57,77.57Q335.26,77.81 335.26,78.25Q335.26,78.59 335.48,78.81Q335.71,79.03 336.44,79.30L337.13,79.57Q338.12,79.93 338.59,80.53Q339.05,81.13 339.05,82.03Q339.05,83.28 338.32,83.89Q337.59,84.50 336.11,84.50Q335.50,84.50 334.89,84.35Q334.28,84.21 333.70,83.92L333.70,82.25Q334.35,82.71 334.96,82.94Q335.56,83.16 336.16,83.16Q336.75,83.16 337.08,82.89Q337.41,82.62 337.41,82.13Q337.41,81.76 337.19,81.49Q336.97,81.21 336.56,81.05L335.76,80.75ZM352.52,84.34L347.42,84.34L347.42,76.15L352.52,76.15L352.52,77.57L349.04,77.57L349.04,79.34L352.19,79.34L352.19,80.77L349.04,80.77L349.04,82.91L352.52,82.91L352.52,84.34ZM364.45,80.47Q364.69,80.52 364.87,80.70Q365.05,80.88 365.31,81.39L366.79,84.34L365.01,84.34L364.03,82.27Q363.98,82.18 363.91,82.03Q363.48,81.10 362.89,81.10L362.37,81.10L362.37,84.34L360.76,84.34L360.76,76.15L363.09,76.15Q364.67,76.15 365.36,76.71Q366.05,77.27 366.05,78.53Q366.05,79.37 365.64,79.88Q365.23,80.37 364.45,80.47ZM362.37,77.51L362.37,79.74L363.14,79.74Q363.80,79.74 364.09,79.48Q364.38,79.22 364.38,78.62Q364.38,78.02 364.09,77.77Q363.81,77.51 363.14,77.51L362.37,77.51ZM376.94,82.99L378.38,76.15L380.01,76.15L378.06,84.34L375.82,84.34L373.87,76.15L375.50,76.15L376.94,82.99ZM388.03,77.57L388.03,76.15L392.91,76.15L392.91,77.57L391.28,77.57L391.28,82.91L392.91,82.91L392.91,84.34L388.03,84.34L388.03,82.91L389.66,82.91L389.66,77.57L388.03,77.57ZM406.55,84.10Q406.16,84.30 405.74,84.40Q405.32,84.50 404.85,84.50Q403.20,84.50 402.32,83.41Q401.45,82.32 401.45,80.25Q401.45,78.18 402.32,77.09Q403.20,76.00 404.85,76.00Q405.32,76.00 405.75,76.10Q406.18,76.20 406.55,76.40L406.55,78.19Q406.13,77.81 405.74,77.63Q405.35,77.45 404.93,77.45Q404.04,77.45 403.59,78.16Q403.14,78.86 403.14,80.25Q403.14,81.63 403.59,82.34Q404.04,83.04 404.93,83.04Q405.35,83.04 405.74,82.87Q406.13,82.69 406.55,82.31L406.55,84.10ZM420.17,84.34L415.07,84.34L415.07,76.15L420.17,76.15L420.17,77.57L416.69,77.57L416.69,79.34L419.84,79.34L419.84,80.77L416.69,80.77L416.69,82.91L420.17,82.91L420.17,84.34Z" fill="#64748b"/></svg>